<svg data-v-0dd9719b="" version="1.0" xmlns="http://www.w3.org/2000/svg" xmlns:xlink="http://www.w3.org/1999/xlink" width="100%" height="100%" viewBox="0 0 340.000000 250.000000" preserveAspectRatio="xMidYMid meet" color-interpolation-filters="sRGB" style="margin: auto;"> <rect data-v-0dd9719b="" x="0" y="0" width="100%" height="100%" fill="#fff" fill-opacity="1" class="background"></rect> <rect data-v-0dd9719b="" x="0" y="0" width="100%" height="100%" fill="url(#watermark)" fill-opacity="1" class="watermarklayer"></rect> <g data-v-0dd9719b="" fill="#03d9eb" class="icon-text-wrapper icon-svg-group iconsvg" transform="translate(46.69499969482422,94.90006637573242)"><g class="iconsvg-imagesvg" transform="translate(0,0)"><g><rect fill="#03d9eb" fill-opacity="0" stroke-width="2" x="0" y="0" width="60" height="60.19986354697596" class="image-rect"></rect> <svg x="0" y="0" width="60" height="60.19986354697596" filtersec="colorsb9965877581" class="image-svg-svg primary" style="overflow: visible;"><svg xmlns="http://www.w3.org/2000/svg" viewBox="0 0 69 69.23001098632812"><title>资源 4</title><g id="图层_2" data-name="图层 2"><g id="Layer_1" data-name="Layer 1"><path d="M27.9,30.26h-.68a12.43,12.43,0,0,1-4.37-.47,5.44,5.44,0,0,1,1.64-10.4H43.87a25.32,25.32,0,0,1,4.88.48,25.92,25.92,0,0,1,12.82,6.88A25.51,25.51,0,0,1,69,44.29,25.35,25.35,0,0,1,57.76,65a23.9,23.9,0,0,1-13.6,4.23H23.69v0a27,27,0,0,1-11.11-4.12A25,25,0,0,1,4.37,56a25.47,25.47,0,0,1-2.5-7.07c0-.14-.05-.27-.08-.41A24.59,24.59,0,0,0,4,51,25.92,25.92,0,0,0,16.8,57.86a25.13,25.13,0,0,0,4.87.48c6.5,0,15.35,0,21.85,0h.63A13.85,13.85,0,0,0,54,54.19a14.4,14.4,0,0,0,4.16-9.9,14.59,14.59,0,0,0-1.68-6.53A14.13,14.13,0,0,0,44,30.25Z" fill="#797986"></path><path d="M41.05,38.94h.68a12.2,12.2,0,0,1,4.37.47,5.44,5.44,0,0,1-1.64,10.4H25.08a24.55,24.55,0,0,1-4.88-.48A25.84,25.84,0,0,1,7.38,42.45,25.47,25.47,0,0,1,0,24.91,25.36,25.36,0,0,1,11.19,4.23,24,24,0,0,1,24.79,0H45.26V0A27,27,0,0,1,56.37,4.15a25.66,25.66,0,0,1,3.81,3.14,24.86,24.86,0,0,1,4.4,6,25.7,25.7,0,0,1,2.5,7.07c0,.14,0,.27.08.41a25.15,25.15,0,0,0-15-9.37,24.38,24.38,0,0,0-4.87-.48H24.8A13.81,13.81,0,0,0,14.94,15a14.38,14.38,0,0,0-4.16,9.89,14.59,14.59,0,0,0,1.68,6.53A14.14,14.14,0,0,0,24.92,39Z" fill="#03d9eb"></path></g></g></svg></svg> <!----></g></g> <g transform="translate(67,9.689933776855469)"><g data-gra="path-name" fill-rule="" class="tp-name iconsvg-namesvg"><g transform="scale(1)"><g><path d="M0 0L6.56-30.86 17.11-30.86 11.37-4.08 21.24-4.08 20.41 0 0 0ZM38-5.78L41.26-20.9 51.17-20.9 46.7 0 38.83 0 37.95-3.11 37.66-3.11Q36.4-1.6 34.24-0.61 32.07 0.39 29.89 0.39L29.89 0.39Q26.97 0.39 25.32-1.09 23.67-2.58 23.67-4.96L23.67-4.96Q23.67-6.17 24.08-7.99 24.49-9.82 24.83-11.42L24.83-11.42 26.87-20.9 36.74-20.9 34.31-9.52Q34.21-9.14 34.11-8.6 34.02-8.07 33.92-7.56 33.82-7.05 33.75-6.58 33.68-6.12 33.68-5.83L33.68-5.83Q33.68-5.1 33.99-4.59 34.31-4.08 35.13-4.08L35.13-4.08Q36.01-4.08 36.79-4.67 37.56-5.25 38-5.78L38-5.78ZM65.46-20.9L61.38-1.8Q60.65 1.6 59.12 3.57 57.59 5.54 55.55 6.56 53.5 7.58 51.15 7.87 48.79 8.16 46.41 8.16L46.41 8.16 46.99 4.81Q47.72 4.81 48.33 4.67 48.94 4.52 49.42 4.03 49.91 3.55 50.32 2.6 50.73 1.65 51.07 0L51.07 0 55.5-20.9 65.46-20.9ZM66.63-27.26L66.63-27.26Q66.63-26.14 66.16-25.32 65.7-24.49 64.95-23.91 64.2-23.33 63.22-23.03 62.25-22.74 61.23-22.74L61.23-22.74Q59.29-22.74 57.98-23.67 56.66-24.59 56.66-26.58L56.66-26.58Q56.66-27.65 57.1-28.5 57.54-29.35 58.29-29.91 59.04-30.47 60.04-30.76 61.04-31.05 62.11-31.05L62.11-31.05Q64-31.05 65.31-30.13 66.63-29.21 66.63-27.26ZM79.75-20.9L75.23 0 65.36 0 69.78-20.9 79.75-20.9ZM81.01-27.26L81.01-27.26Q81.01-26.14 80.55-25.32 80.09-24.49 79.33-23.91 78.58-23.33 77.61-23.03 76.64-22.74 75.62-22.74L75.62-22.74Q73.67-22.74 72.36-23.67 71.05-24.59 71.05-26.58L71.05-26.58Q71.05-27.65 71.48-28.5 71.92-29.35 72.68-29.91 73.43-30.47 74.42-30.76 75.42-31.05 76.49-31.05L76.49-31.05Q78.39-31.05 79.7-30.13 81.01-29.21 81.01-27.26ZM96.46-32.66L92.09-12.05 103.41-20.9 109.83-20.9 100.16-12.98 107.4 0 96.51 0 91.56-9.77 89.51 0 79.6 0 86.5-32.66 96.46-32.66ZM123.09-20.9L118.57 0 108.71 0 113.13-20.9 123.09-20.9ZM124.36-27.26L124.36-27.26Q124.36-26.14 123.9-25.32 123.43-24.49 122.68-23.91 121.93-23.33 120.96-23.03 119.98-22.74 118.96-22.74L118.96-22.74Q117.02-22.74 115.71-23.67 114.4-24.59 114.4-26.58L114.4-26.58Q114.4-27.65 114.83-28.5 115.27-29.35 116.02-29.91 116.78-30.47 117.77-30.76 118.77-31.05 119.84-31.05L119.84-31.05Q121.73-31.05 123.05-30.13 124.36-29.21 124.36-27.26ZM136.17-17.79L136.46-17.79Q137.48-18.76 138.74-19.58L138.74-19.58Q139.86-20.26 141.37-20.85 142.87-21.43 144.72-21.43L144.72-21.43Q147.25-21.43 148.9-20.14 150.55-18.86 150.55-16.62L150.55-16.62Q150.55-15.99 150.4-15.09 150.26-14.19 150.06-13.22 149.87-12.25 149.65-11.25 149.43-10.25 149.29-9.48L149.29-9.48 147.25 0 137.38 0 140.05-12.68Q140.15-13.32 140.3-13.97 140.44-14.63 140.44-15.16L140.44-15.16Q140.44-15.89 140.08-16.35 139.71-16.81 138.98-16.81L138.98-16.81Q138.11-16.81 137.31-16.18 136.51-15.55 136.07-15.11L136.07-15.11 132.86 0 122.95 0 127.37-20.9 135.29-20.9 136.17-17.79ZM169.55-17.74L171.74-20.9 179.61-20.9 175.63-1.99Q175.19 0.19 174.17 2.04 173.15 3.89 171.33 5.25 169.5 6.61 166.76 7.39 164.01 8.16 160.08 8.16L160.08 8.16Q159.35 8.16 158.33 8.14 157.31 8.12 156.24 8.09 155.17 8.07 154.2 8.02 153.22 7.97 152.64 7.92L152.64 7.92 153.56 4.42Q155.12 4.67 156.75 4.69 158.37 4.71 159.54 4.71L159.54 4.71Q161 4.71 162 4.45 162.99 4.18 163.65 3.6 164.3 3.01 164.72 2.04 165.13 1.07 165.37-0.34L165.37-0.34 165.96-3.5 165.62-3.5Q165.32-3.06 164.77-2.45 164.21-1.85 163.33-1.29 162.46-0.73 161.27-0.36 160.08 0 158.57 0L158.57 0Q156.87 0 155.68-0.51 154.49-1.02 153.76-1.92 153.03-2.82 152.69-4.06 152.35-5.3 152.35-6.75L152.35-6.75Q152.35-7.39 152.45-8.7 152.54-10.01 152.91-11.66 153.27-13.32 153.98-15.04 154.68-16.77 155.87-18.17 157.06-19.58 158.84-20.51 160.61-21.43 163.14-21.43L163.14-21.43Q163.91-21.43 164.84-21.29 165.76-21.14 166.64-20.75 167.51-20.36 168.19-19.63 168.87-18.9 169.26-17.74L169.26-17.74 169.55-17.74ZM166.3-16.67L166.3-16.67Q165.13-16.67 164.35-15.43 163.57-14.19 163.09-12.54 162.6-10.89 162.38-9.26 162.17-7.63 162.17-6.85L162.17-6.85Q162.17-5.88 162.48-5.22 162.8-4.57 163.62-4.57L163.62-4.57Q164.11-4.57 164.57-4.81 165.03-5.05 165.45-5.37 165.86-5.69 166.17-6.03 166.49-6.37 166.64-6.56L166.64-6.56 168.43-15.06Q168.05-15.6 167.54-16.13 167.02-16.67 166.3-16.67Z" transform="translate(0, 32.65999984741211)"></path></g> <!----> <!----> <!----> <!----> <!----> <!----> <!----></g></g> <!----></g></g><defs v-gra="od"></defs></svg>